<svg width="1024" height="1024" viewBox="0 0 1024 1024" fill="none" xmlns="http://www.w3.org/2000/svg">
<g clip-path="url(#clip0_580_4177)">
<g filter="url(#filter0_dii_580_4177)">
<path fill-rule="evenodd" clip-rule="evenodd" d="M924 356.627C924 346.845 924.004 337.062 923.944 327.279C923.895 319.038 923.8 310.799 923.576 302.562C923.092 284.609 922.033 266.502 918.84 248.749C915.602 230.741 910.314 213.98 901.981 197.617C893.789 181.534 883.088 166.817 870.32 154.058C857.555 141.299 842.834 130.605 826.746 122.418C810.366 114.083 793.587 108.797 775.558 105.56C757.803 102.372 739.691 101.315 721.738 100.83C713.495 100.607 705.253 100.513 697.008 100.462C687.22 100.402 677.432 100.407 667.644 100.407L553.997 100H468.997L357.361 100.407C347.554 100.407 337.747 100.402 327.94 100.462C319.678 100.513 311.42 100.607 303.161 100.83C285.167 101.315 267.014 102.373 249.217 105.565C231.164 108.801 214.36 114.085 197.958 122.414C181.835 130.602 167.083 141.297 154.291 154.058C141.501 166.816 130.78 181.53 122.573 197.61C114.217 213.981 108.919 230.752 105.673 248.77C102.477 266.516 101.418 284.617 100.931 302.562C100.709 310.8 100.613 319.039 100.563 327.279C100.503 337.063 100 349.216 100 358.999L100.003 469.089L100 554.998L100.508 667.427C100.508 677.223 100.504 687.019 100.563 696.815C100.613 705.067 100.709 713.317 100.932 721.566C101.418 739.542 102.479 757.675 105.678 775.452C108.923 793.484 114.22 810.269 122.569 826.653C130.777 842.759 141.5 857.495 154.291 870.272C167.082 883.049 181.83 893.757 197.95 901.956C214.362 910.302 231.174 915.595 249.238 918.836C267.027 922.029 285.174 923.088 303.161 923.573C311.42 923.796 319.679 923.891 327.941 923.941C337.748 924.001 347.554 923.997 357.361 923.997L470.006 924H555.217L667.644 923.996C677.432 923.996 687.22 924.001 697.008 923.941C705.253 923.891 713.495 923.796 721.738 923.573C739.698 923.087 757.816 922.027 775.579 918.832C793.597 915.591 810.368 910.3 826.739 901.959C842.831 893.761 857.554 883.051 870.32 870.272C883.086 857.497 893.786 842.763 901.978 826.66C910.316 810.268 915.604 793.475 918.844 775.431C922.034 757.661 923.092 739.535 923.577 721.566C923.8 713.316 923.895 705.066 923.944 696.815C924.005 687.019 924 677.223 924 667.427C924 667.427 923.994 556.983 923.994 554.998V468.999C923.994 467.533 924 356.627 924 356.627Z" fill="white" fill-opacity="0.01"/>
</g>
<mask id="mask0_580_4177" style="mask-type:alpha" maskUnits="userSpaceOnUse" x="100" y="100" width="824" height="824">
<path fill-rule="evenodd" clip-rule="evenodd" d="M924 356.627C924 346.845 924.004 337.062 923.944 327.279C923.895 319.038 923.8 310.799 923.576 302.562C923.092 284.609 922.033 266.502 918.84 248.749C915.602 230.741 910.314 213.98 901.981 197.617C893.789 181.534 883.088 166.817 870.32 154.058C857.555 141.299 842.834 130.605 826.746 122.418C810.366 114.083 793.587 108.797 775.558 105.56C757.803 102.372 739.691 101.315 721.738 100.83C713.495 100.607 705.253 100.513 697.008 100.462C687.22 100.402 677.432 100.407 667.644 100.407L553.997 100H468.997L357.361 100.407C347.554 100.407 337.747 100.402 327.94 100.462C319.678 100.513 311.42 100.607 303.161 100.83C285.167 101.315 267.014 102.373 249.217 105.565C231.164 108.801 214.36 114.085 197.958 122.414C181.835 130.602 167.083 141.297 154.291 154.058C141.501 166.816 130.78 181.53 122.573 197.61C114.217 213.981 108.919 230.752 105.673 248.77C102.477 266.516 101.418 284.617 100.931 302.562C100.709 310.8 100.613 319.039 100.563 327.279C100.503 337.063 100 349.216 100 358.999L100.003 469.089L100 554.998L100.508 667.427C100.508 677.223 100.504 687.019 100.563 696.815C100.613 705.067 100.709 713.317 100.932 721.566C101.418 739.542 102.479 757.675 105.678 775.452C108.923 793.484 114.22 810.269 122.569 826.653C130.777 842.759 141.5 857.495 154.291 870.272C167.082 883.049 181.83 893.757 197.95 901.956C214.362 910.302 231.174 915.595 249.238 918.836C267.027 922.029 285.174 923.088 303.161 923.573C311.42 923.796 319.679 923.891 327.941 923.941C337.748 924.001 347.554 923.997 357.361 923.997L470.006 924H555.217L667.644 923.996C677.432 923.996 687.22 924.001 697.008 923.941C705.253 923.891 713.495 923.796 721.738 923.573C739.698 923.087 757.816 922.027 775.579 918.832C793.597 915.591 810.368 910.3 826.739 901.959C842.831 893.761 857.554 883.051 870.32 870.272C883.086 857.497 893.786 842.763 901.978 826.66C910.316 810.268 915.604 793.475 918.844 775.431C922.034 757.661 923.092 739.535 923.577 721.566C923.8 713.316 923.895 705.066 923.944 696.815C924.005 687.019 924 677.223 924 667.427C924 667.427 923.994 556.983 923.994 554.998V468.999C923.994 467.533 924 356.627 924 356.627Z" fill="white"/>
</mask>
<g mask="url(#mask0_580_4177)">
<path d="M769.5 100H254.5C169.172 100 100 169.172 100 254.5V769.5C100 854.828 169.172 924 254.5 924H769.5C854.828 924 924 854.828 924 769.5V254.5C924 169.172 854.828 100 769.5 100Z" fill="url(#paint0_radial_580_4177)"/>
<path d="M769.5 100H254.5C169.172 100 100 169.172 100 254.5V769.5C100 854.828 169.172 924 254.5 924H769.5C854.828 924 924 854.828 924 769.5V254.5C924 169.172 854.828 100 769.5 100Z" fill="url(#paint1_radial_580_4177)"/>
<path d="M769.5 100H254.5C169.172 100 100 169.172 100 254.5V769.5C100 854.828 169.172 924 254.5 924H769.5C854.828 924 924 854.828 924 769.5V254.5C924 169.172 854.828 100 769.5 100Z" fill="url(#paint2_radial_580_4177)"/>
<path d="M464.621 314.351C491.057 247.247 542.59 210.093 617.756 203.941C622.467 203.555 648.021 203.186 674.541 203.12L722.762 203L724.927 205.165C726.56 206.799 726.973 207.903 726.61 209.662C726.344 210.945 722.821 230.495 718.782 253.108C714.044 279.63 710.991 294.678 710.179 295.508C709.108 296.601 702.644 296.868 666.765 297.296C630.952 297.723 623.642 298.024 618.185 299.292C594.697 304.75 578.632 317.748 568.468 339.518C562.366 352.587 559.99 361.688 555.604 388.785C553.211 403.564 553.141 404.643 554.487 406.13C555.858 407.644 558.641 407.715 616.605 407.715C676.145 407.715 677.319 407.748 678.999 409.428C679.942 410.37 680.713 411.724 680.713 412.436C680.713 415.761 665.907 497.343 665.134 498.274C664.455 499.094 650.039 499.386 601.421 499.564C545.346 499.77 538.44 499.941 537.225 501.155C536.247 502.133 532.149 523.912 522.638 578.673C515.364 620.559 508.426 659.59 507.221 665.409C501.435 693.356 491.457 719.358 478.496 740.254C452.616 781.982 411.854 807.056 358.222 814.241C348.046 815.605 306.349 816.893 302.623 815.959C298.088 814.82 298.117 814.427 305.954 770.466C309.986 747.851 313.47 728.509 313.698 727.482C314.5 723.869 316.129 723.219 325.814 722.654C346.445 721.449 361.396 716.416 372.981 706.775C385.054 696.726 395.343 677.163 400.072 655.258C402.936 641.989 426.368 505.701 426.134 503.668C425.668 499.625 423.837 499.392 392.33 499.378C360.911 499.365 360.364 499.29 360.364 494.99C360.364 494.064 363.455 474.722 367.233 452.009C373.222 416.004 374.331 410.521 375.893 409.214C377.53 407.844 380.481 407.715 410.108 407.715C441.029 407.715 442.573 407.64 443.398 406.096C443.875 405.206 445.797 395.069 447.67 383.57C453.241 349.373 457.213 333.157 464.621 314.351Z" fill="white"/>
</g>
<g filter="url(#filter1_ii_580_4177)">
<path fill-rule="evenodd" clip-rule="evenodd" d="M924 356.627C924 346.845 924.004 337.062 923.944 327.279C923.895 319.038 923.8 310.799 923.576 302.562C923.092 284.609 922.033 266.502 918.84 248.749C915.602 230.741 910.314 213.98 901.981 197.617C893.789 181.534 883.088 166.817 870.32 154.058C857.555 141.299 842.834 130.605 826.746 122.418C810.366 114.083 793.587 108.797 775.558 105.56C757.803 102.372 739.691 101.315 721.738 100.83C713.495 100.607 705.253 100.513 697.008 100.462C687.22 100.402 677.432 100.407 667.644 100.407L553.997 100H468.997L357.361 100.407C347.554 100.407 337.747 100.402 327.94 100.462C319.678 100.513 311.42 100.607 303.161 100.83C285.167 101.315 267.014 102.373 249.217 105.565C231.164 108.801 214.36 114.085 197.958 122.414C181.835 130.602 167.083 141.297 154.291 154.058C141.501 166.816 130.78 181.53 122.573 197.61C114.217 213.981 108.919 230.752 105.673 248.77C102.477 266.516 101.418 284.617 100.931 302.562C100.709 310.8 100.613 319.039 100.563 327.279C100.503 337.063 100 349.216 100 358.999L100.003 469.089L100 554.998L100.508 667.427C100.508 677.223 100.504 687.019 100.563 696.815C100.613 705.067 100.709 713.317 100.932 721.566C101.418 739.542 102.479 757.675 105.678 775.452C108.923 793.484 114.22 810.269 122.569 826.653C130.777 842.759 141.5 857.495 154.291 870.272C167.082 883.049 181.83 893.757 197.95 901.956C214.362 910.302 231.174 915.595 249.238 918.836C267.027 922.029 285.174 923.088 303.161 923.573C311.42 923.796 319.679 923.891 327.941 923.941C337.748 924.001 347.554 923.997 357.361 923.997L470.006 924H555.217L667.644 923.996C677.432 923.996 687.22 924.001 697.008 923.941C705.253 923.891 713.495 923.796 721.738 923.573C739.698 923.087 757.816 922.027 775.579 918.832C793.597 915.591 810.368 910.3 826.739 901.959C842.831 893.761 857.554 883.051 870.32 870.272C883.086 857.497 893.786 842.763 901.978 826.66C910.316 810.268 915.604 793.475 918.844 775.431C922.034 757.661 923.092 739.535 923.577 721.566C923.8 713.316 923.895 705.066 923.944 696.815C924.005 687.019 924 677.223 924 667.427C924 667.427 923.994 556.983 923.994 554.998V468.999C923.994 467.533 924 356.627 924 356.627Z" fill="white" fill-opacity="0.01"/>
</g>
</g>
<defs>
<filter id="filter0_dii_580_4177" x="90" y="97" width="844" height="847" filterUnits="userSpaceOnUse" color-interpolation-filters="sRGB">
<feFlood flood-opacity="0" result="BackgroundImageFix"/>
<feColorMatrix in="SourceAlpha" type="matrix" values="0 0 0 0 0 0 0 0 0 0 0 0 0 0 0 0 0 0 127 0" result="hardAlpha"/>
<feOffset dy="10"/>
<feGaussianBlur stdDeviation="5"/>
<feColorMatrix type="matrix" values="0 0 0 0 0 0 0 0 0 0 0 0 0 0 0 0 0 0 0.3 0"/>
<feBlend mode="normal" in2="BackgroundImageFix" result="effect1_dropShadow_580_4177"/>
<feBlend mode="normal" in="SourceGraphic" in2="effect1_dropShadow_580_4177" result="shape"/>
<feColorMatrix in="SourceAlpha" type="matrix" values="0 0 0 0 0 0 0 0 0 0 0 0 0 0 0 0 0 0 127 0" result="hardAlpha"/>
<feOffset dy="4"/>
<feGaussianBlur stdDeviation="1"/>
<feComposite in2="hardAlpha" operator="arithmetic" k2="-1" k3="1"/>
<feColorMatrix type="matrix" values="0 0 0 0 0.363036 0 0 0 0 0.48943 0 0 0 0 0.93667 0 0 0 1 0"/>
<feBlend mode="normal" in2="shape" result="effect2_innerShadow_580_4177"/>
<feColorMatrix in="SourceAlpha" type="matrix" values="0 0 0 0 0 0 0 0 0 0 0 0 0 0 0 0 0 0 127 0" result="hardAlpha"/>
<feOffset dy="-3"/>
<feGaussianBlur stdDeviation="2"/>
<feComposite in2="hardAlpha" operator="arithmetic" k2="-1" k3="1"/>
<feColorMatrix type="matrix" values="0 0 0 0 0 0 0 0 0 0 0 0 0 0 0 0 0 0 0.25 0"/>
<feBlend mode="normal" in2="effect2_innerShadow_580_4177" result="effect3_innerShadow_580_4177"/>
</filter>
<filter id="filter1_ii_580_4177" x="100" y="97" width="824" height="829" filterUnits="userSpaceOnUse" color-interpolation-filters="sRGB">
<feFlood flood-opacity="0" result="BackgroundImageFix"/>
<feBlend mode="normal" in="SourceGraphic" in2="BackgroundImageFix" result="shape"/>
<feColorMatrix in="SourceAlpha" type="matrix" values="0 0 0 0 0 0 0 0 0 0 0 0 0 0 0 0 0 0 127 0" result="hardAlpha"/>
<feOffset dy="4"/>
<feGaussianBlur stdDeviation="1"/>
<feComposite in2="hardAlpha" operator="arithmetic" k2="-1" k3="1"/>
<feColorMatrix type="matrix" values="0 0 0 0 1 0 0 0 0 1 0 0 0 0 1 0 0 0 0.5 0"/>
<feBlend mode="normal" in2="shape" result="effect1_innerShadow_580_4177"/>
<feColorMatrix in="SourceAlpha" type="matrix" values="0 0 0 0 0 0 0 0 0 0 0 0 0 0 0 0 0 0 127 0" result="hardAlpha"/>
<feOffset dy="-3"/>
<feGaussianBlur stdDeviation="2"/>
<feComposite in2="hardAlpha" operator="arithmetic" k2="-1" k3="1"/>
<feColorMatrix type="matrix" values="0 0 0 0 0 0 0 0 0 0 0 0 0 0 0 0 0 0 0.25 0"/>
<feBlend mode="normal" in2="effect1_innerShadow_580_4177" result="effect2_innerShadow_580_4177"/>
</filter>
<radialGradient id="paint0_radial_580_4177" cx="0" cy="0" r="1" gradientUnits="userSpaceOnUse" gradientTransform="translate(878.937 878.937) rotate(-135) scale(1101.59)">
<stop stop-color="#66BF8B"/>
<stop offset="0.458333" stop-color="#5FB58B"/>
<stop offset="0.828125" stop-color="#215788"/>
</radialGradient>
<radialGradient id="paint1_radial_580_4177" cx="0" cy="0" r="1" gradientUnits="userSpaceOnUse" gradientTransform="translate(878.938 145.063) rotate(135) scale(1101.59)">
<stop offset="0.140625" stop-color="#278BAA"/>
<stop offset="0.604167" stop-color="#215788" stop-opacity="0"/>
</radialGradient>
<radialGradient id="paint2_radial_580_4177" cx="0" cy="0" r="1" gradientUnits="userSpaceOnUse" gradientTransform="translate(145.063 878.937) rotate(-44.7642) scale(1106.14)">
<stop offset="0.140625" stop-color="#00548A"/>
<stop offset="0.807292" stop-color="#215788" stop-opacity="0"/>
</radialGradient>
<clipPath id="clip0_580_4177">
<rect width="1024" height="1024" fill="white"/>
</clipPath>
</defs>
</svg>
